HIERARCHY
ROOT Hips
{
  OFFSET 0 0 0
  CHANNELS 6 Xposition Yposition Zposition Zrotation Yrotation Xrotation
  JOINT LeftThigh
  {
    OFFSET 8.409438 0 -5.917753
    CHANNELS 3 Zrotation Yrotation Xrotation
    JOINT LeftLeg
    {
      OFFSET 0 0 -42.358652
      CHANNELS 3 Zrotation Yrotation Xrotation
      JOINT LeftFoot
      {
        OFFSET 0 0 -39.357303
        CHANNELS 3 Zrotation Yrotation Xrotation
      }
    }
  }
  JOINT RightThigh
  {
    OFFSET -8.409438 0 -5.917753
    CHANNELS 3 Zrotation Yrotation Xrotation
    JOINT RightLeg
    {
      OFFSET 0 0 -42.358652
      CHANNELS 3 Zrotation Yrotation Xrotation
      JOINT RightFoot
      {
        OFFSET 0 0 -39.357303
        CHANNELS 3 Zrotation Yrotation Xrotation
      }
    }
  }
  JOINT SpineLow
  {
    OFFSET 0 0 4.719101
    CHANNELS 3 Zrotation Yrotation Xrotation
    JOINT SpineMid
    {
      OFFSET 0 0 12.899191
      CHANNELS 3 Zrotation Yrotation Xrotation
      JOINT Chest
      {
        OFFSET 0 0 12.899191
        CHANNELS 3 Zrotation Yrotation Xrotation
        JOINT LeftShoulder
        {
          OFFSET 7.550562 1.41573 9.438202
          CHANNELS 3 Zrotation Yrotation Xrotation
          JOINT LeftArm
          {
            OFFSET 9.155056 0 4.247191
            CHANNELS 3 Zrotation Yrotation Xrotation
            JOINT LeftForearm
            {
              OFFSET 0 0 25.771955
              CHANNELS 3 Zrotation Yrotation Xrotation
              JOINT LeftHand
              {
                OFFSET 0 0 25.197169
                CHANNELS 3 Zrotation Yrotation Xrotation
              }
            }
          }
        }
        JOINT RightShoulder
        {
          OFFSET -7.550562 1.41573 9.438202
          CHANNELS 3 Zrotation Yrotation Xrotation
          JOINT RightArm
          {
            OFFSET -9.155056 0 4.247191
            CHANNELS 3 Zrotation Yrotation Xrotation
            JOINT RightForearm
            {
              OFFSET 0 0 -25.771955
              CHANNELS 3 Zrotation Yrotation Xrotation
              JOINT RightHand
              {
                OFFSET 0 0 -25.197169
                CHANNELS 3 Zrotation Yrotation Xrotation
              }
            }
          }
        }
        JOINT Neck
        {
          OFFSET 0 0 15.101124
          CHANNELS 3 Zrotation Yrotation Xrotation
          JOINT Head
          {
            OFFSET 0 0 11.325843
            CHANNELS 3 Zrotation Yrotation Xrotation
            End Site
            {
              OFFSET 0 0 14.157303
            }
          }
        }
      }
    }
  }
}
MOTION
Frames: 14
Frame Time: 0.0
0.0  93.25843  0.0  0.126252  43.287132  -89.718853  10.532212  -15.686819  15.839227  6.349354  -5.707521  2.073418  -5.336536  3.975326  -4.77806  -20.798647  -1.454122  -32.599415  -12.261964  20.910478  31.936455  -3.054746  -1.125778  2.700911  -0.0389  -0.206938  1.038422  -0.115193  -0.563854  2.838818  -0.115193  -0.563854  2.838818  -9.939643  20.639676  11.181069  143.696239  49.705823  -161.594595  -27.171217  -6.774792  69.649609  56.577712  -2.563075  20.954829  10.603351  -9.589433  14.681989  51.902359  68.291534  -2.766949  -43.508376  -32.278021  -85.646851  68.673119  7.293591  -3.852107  -20.954959  1.075629  10.94003  -15.741037  0.432057  8.253234  
0.0  93.25843  0.0  0.325231  42.346784  -89.552617  10.342977  -15.333229  16.290726  6.243052  -5.392106  1.028929  -4.326677  3.975813  -4.137483  -20.711256  -0.637457  -33.201935  -12.711286  20.603782  32.451331  -2.690799  -1.202108  2.734604  -0.068368  -0.182021  1.02496  -0.194556  -0.494537  2.802186  -0.194556  -0.494537  2.802186  -10.24691  20.857002  10.998438  143.349655  50.784546  -161.748393  -26.959865  -8.008992  69.982443  56.117238  -3.683128  19.968337  10.607828  -9.441233  14.329203  55.604493  67.151697  0.48475  -42.103256  -32.11691  -87.875753  68.874849  6.907434  -3.450797  -20.734168  1.153282  10.950183  -15.576733  0.494011  8.26283  
0.0  93.25843  0.0  0.526812  41.51844  -89.344261  9.974183  -14.765266  16.837359  7.471276  -5.385599  0.69835  -4.301568  3.9715  -4.243898  -20.484817  -0.582389  -33.585148  -13.314148  21.011922  32.488702  -2.501033  -1.272681  2.740837  -0.109504  -0.156615  0.990777  -0.305678  -0.423521  2.708925  -0.305679  -0.423521  2.708925  -10.670743  21.012982  10.741117  143.075674  52.037187  -161.826084  -26.7063  -8.949922  70.236872  55.583273  -4.904376  18.904477  10.185863  -9.312779  14.017955  59.878519  66.034682  3.56549  -41.025035  -31.525835  -89.672659  69.080775  6.414036  -2.939908  -20.42355  1.234099  11.081406  -15.345467  0.555903  8.363114  
0.0  93.25843  0.0  0.624788  40.39473  -89.339162  9.773523  -14.274216  17.508724  8.724548  -5.347937  0.45317  -4.380545  3.950555  -4.440123  -20.441158  -0.767566  -33.802585  -14.229113  21.488492  32.026301  -1.797355  -1.143647  3.005625  -0.189702  -0.109108  0.960475  -0.522773  -0.290648  2.626214  -0.522773  -0.290648  2.626214  -10.692901  20.914254  10.519376  143.361826  53.539576  -161.452309  -26.521317  -9.135791  70.311591  55.10669  -6.069234  17.768243  10.53337  -9.522239  14.075843  63.84955  65.164066  6.549661  -39.716777  -31.071348  -91.248936  69.534496  6.44628  -2.187902  -20.232375  1.341645  11.205684  -15.204283  0.636046  8.459352  
0.0  93.25843  0.0  0.589473  39.132333  -89.404431  9.922903  -14.008407  18.140721  9.768303  -5.223841  0.335997  -4.387613  3.891201  -4.570393  -20.527496  -1.245417  -33.971306  -14.267444  21.644912  31.952309  -1.895047  -1.111377  3.136686  -0.189497  -0.116432  0.938928  -0.522404  -0.310843  2.567378  -0.522404  -0.310843  2.567378  -11.25534  20.942545  10.134802  143.886905  55.226477  -160.747887  -26.575213  -8.683932  70.278349  54.796493  -7.097701  16.559817  10.006298  -9.375623  13.954817  68.459222  63.955279  9.633381  -38.899331  -30.399759  -93.017012  69.729343  6.053095  -1.666509  -19.93086  1.387936  11.301599  -14.979186  0.673216  8.531871  
0.0  93.25843  0.0  0.552187  37.723449  -89.557738  10.559354  -13.94141  18.712888  10.293738  -5.080978  0.424749  -5.091714  3.813171  -5.341111  -20.774243  -1.854425  -34.045855  -14.203814  21.777135  31.889346  -2.080808  -1.020163  3.250848  -0.331358  -0.077302  0.898927  -0.908465  -0.198944  2.458139  -0.908465  -0.198944  2.458139  -10.850741  20.723526  9.949881  144.238777  56.908674  -160.126563  -26.909585  -8.208363  70.35148  54.462552  -8.065725  15.275226  10.701407  -9.612846  14.13065  72.794469  62.739263  12.62835  -38.093502  -29.872346  -94.848349  69.901592  5.820822  -1.295657  -19.154914  1.409311  11.499465  -14.398054  0.6974  8.678501  
0.0  93.25843  0.0  0.476036  36.245807  -89.794196  11.75676  -14.218001  19.126628  10.016202  -4.857462  0.725117  -5.074333  3.745945  -5.46289  -21.173286  -2.673698  -33.967748  -14.071446  22.004789  31.776169  -2.341634  -0.923088  3.342761  -0.381348  -0.119315  0.878805  -1.046561  -0.312222  2.403953  -1.046561  -0.312222  2.403953  -11.326055  20.977894  9.495078  144.149614  58.598586  -159.945708  -27.426351  -8.194788  70.702138  53.952881  -9.122836  13.89014  10.547886  -9.399352  14.31777  77.35217  61.385794  15.552084  -37.250492  -29.529073  -96.68212  70.138988  5.698486  -1.102469  -18.648566  1.581505  11.55486  -14.021405  0.834573  8.723538  
0.0  93.25843  0.0  0.33899  34.65962  -90.186072  13.508777  -14.91619  19.451369  9.0574  -4.481479  1.243575  -5.258246  3.630532  -5.6661  -21.684975  -3.715758  -33.675517  -13.985275  22.4413  31.49701  -2.510642  -0.800368  3.470693  -0.498944  -0.180718  0.856558  -1.370038  -0.47621  2.344966  -1.370038  -0.47621  2.344966  -11.492425  21.397072  9.099862  143.937332  60.332296  -159.985784  -27.933905  -8.704625  71.356421  53.315761  -10.331777  12.396591  10.873461  -9.156225  14.842855  82.090509  59.920539  18.722942  -36.635399  -29.179302  -98.615522  70.344543  5.601114  -1.182184  -17.978198  1.926383  11.625695  -13.524844  1.104186  8.784187  
0.0  93.25843  0.0  0.119711  33.023123  -90.700255  15.452901  -15.939161  19.689533  7.903909  -3.973562  2.016818  -5.333846  3.421687  -5.744924  -22.24091  -5.065398  -33.033188  -13.869887  23.060476  30.966643  -2.661902  -0.6614  3.60254  -0.620057  -0.271789  0.854298  -1.704283  -0.720844  2.342016  -1.704283  -0.720844  2.342016  -11.798903  21.879197  8.611002  144.068738  62.130462  -159.777343  -28.277996  -9.521268  72.178563  52.724519  -11.676487  10.768674  10.90959  -8.771294  15.312615  86.63684  58.488147  21.318992  -35.929047  -28.856028  -100.290131  70.728284  5.388978  -1.427954  -17.144229  2.303168  11.689614  -12.906107  1.401193  8.838944  
0.0  93.25843  0.0  -0.168932  31.209028  -91.301932  17.439934  -17.067239  19.898409  6.974992  -3.463381  3.014594  -5.573095  3.155733  -5.815491  -22.930663  -6.528725  -32.182944  -13.648824  23.560983  30.364918  -2.491669  -0.563924  3.776182  -0.811184  -0.326286  0.851785  -2.228583  -0.863062  2.339034  -2.228583  -0.863062  2.339034  -11.605952  22.050195  8.179915  144.720964  63.966179  -159.212964  -28.507304  -10.351534  73.044796  52.334274  -13.06811  8.989755  11.566849  -8.774218  15.807257  91.002806  56.918042  23.80198  -35.515542  -28.228725  -101.719646  71.316124  5.076498  -1.927372  -15.871492  2.632735  11.896437  -11.958163  1.667552  8.996378  
0.0  93.25843  0.0  -0.470094  29.32443  -91.813131  19.302431  -18.112819  20.024188  6.586067  -2.986043  4.274307  -5.830451  2.723486  -5.836353  -23.53278  -8.083931  -31.081619  -13.309234  23.958827  29.640547  -2.636921  -0.375342  3.909009  -0.937999  -0.439744  0.831421  -2.578944  -1.169382  2.289488  -2.578944  -1.169382  2.289488  -11.918179  22.42464  7.739534  146.139297  65.846469  -157.972568  -28.743441  -10.987881  73.878793  52.171442  -14.398491  7.122276  11.528432  -8.462016  16.247806  95.169487  55.110052  25.961525  -35.349733  -27.225644  -102.875331  72.130423  4.689136  -2.582464  -14.82862  3.108555  12.058459  -11.185265  2.041117  9.123483  
0.0  93.25843  0.0  -0.742332  27.273466  -92.264281  21.290484  -19.09065  20.052949  6.773649  -2.633199  5.769007  -6.20499  2.368523  -5.840374  -24.047402  -9.558123  -29.826935  -12.919024  24.140889  28.880449  -2.895538  -0.171509  3.989698  -1.055104  -0.549303  0.796598  -2.902196  -1.466198  2.201241  -2.902196  -1.466198  2.201241  -12.213145  22.660243  7.343758  148.173151  67.649786  -156.223992  -29.107814  -11.345023  74.673191  52.203392  -15.605223  5.242256  11.611085  -8.255547  16.731303  98.668176  53.244791  27.744333  -35.388276  -25.805578  -103.822113  73.083692  4.267165  -3.190055  -13.68237  3.617671  12.316544  -10.336311  2.440098  9.32095  
0.0  93.25843  0.0  -0.942942  25.047348  -92.69019  23.516336  -19.951911  20.022829  7.266746  -2.437447  7.397123  -6.673159  2.024741  -5.770397  -24.301366  -10.978256  -28.344427  -12.399462  24.182903  28.103485  -3.201184  0.057009  4.075763  -1.155665  -0.645811  0.759356  -3.179486  -1.72831  2.106383  -3.179486  -1.72831  2.106383  -12.511032  22.787866  6.965569  150.51907  69.363272  -154.26458  -29.678828  -11.442966  75.452443  52.379056  -16.688502  3.380643  11.371127  -8.030348  17.042978  101.792573  51.185107  29.13527  -35.383879  -24.193619  -104.700906  73.964507  3.882747  -3.627049  -12.512252  4.079818  12.620933  -9.469362  2.804287  9.550068  
0.0  93.25843  0.0  -1.097071  22.692958  -93.119926  25.672204  -20.752681  20.042165  7.98568  -2.337209  9.259499  -7.195713  1.609535  -5.711249  -24.159062  -12.289268  -26.876986  -11.965605  24.252785  27.363526  -3.461307  0.318138  4.240997  -1.243229  -0.724236  0.726064  -3.420545  -1.941493  2.021789  -3.420545  -1.941494  2.021789  -12.790868  22.756295  6.632709  152.915663  70.946519  -152.295899  -30.4679  -11.407939  76.218734  52.64107  -17.706233  1.565099  11.030614  -7.894907  17.230462  104.354626  49.130165  30.258042  -35.335985  -22.552996  -105.465359  74.375895  3.502698  -4.079739  -11.326421  4.485855  12.971678  -8.590424  3.12697  9.811028  
